<svg width="22" height="22" viewBox="0 0 22 22" fill="none" xmlns="http://www.w3.org/2000/svg">
<g id="Icon">
<path d="M11.9429 4.71429C11.9429 4.19356 11.5207 3.77143 11 3.77143C10.4793 3.77143 10.0571 4.19356 10.0571 4.71429V11C10.0571 11.3251 10.2246 11.6272 10.5003 11.7995L14.2717 14.1567C14.7133 14.4327 15.295 14.2984 15.571 13.8569C15.847 13.4153 15.7127 12.8336 15.2711 12.5576L11.9429 10.4774V4.71429Z" fill="#00D9E7"/>
<path fill-rule="evenodd" clip-rule="evenodd" d="M11 0C4.92487 0 0 4.92487 0 11C0 17.0751 4.92487 22 11 22C17.0751 22 22 17.0751 22 11C22 4.92487 17.0751 0 11 0ZM1.88571 11C1.88571 5.96632 5.96632 1.88571 11 1.88571C16.0337 1.88571 20.1143 5.96632 20.1143 11C20.1143 16.0337 16.0337 20.1143 11 20.1143C5.96632 20.1143 1.88571 16.0337 1.88571 11Z" fill="#00D9E7"/>
</g>
</svg>
